<svg xmlns="http://www.w3.org/2000/svg" viewBox="0 0 867.504 394.851">
  <defs>
    <style>
      .a {
        fill: #13abac;
      }

      .b {
        fill: #ffffff;
      }

      .c {
        isolation: isolate;
      }
    </style>
  </defs>
  <g>
    <polygon class="a" points="867.504 19.364 867.504 0 0 0 0 394.851 867.504 394.851 867.504 375.464 19.743 375.464 19.743 19.364 867.504 19.364"/>
    <g>
      <polygon class="b" points="502.329 276.421 530.511 276.421 530.511 268.922 502.391 268.922 502.329 276.421"/>
      <g>
        <path class="b" d="M148.241,273.1c-.638-11.459-1.245-23.03-1.8-34.4l8.035-1.233v-5.494H136.841l-28.736,62.2-28.524-62.2H60.391v5.49l7.549,1.232-3.82,68.544-7.65,1.239v5.491H79.76v-5.489l-7.45-1.233,2.165-59.273L105.9,314.641l30.839-65.866,2.319,58.463-8.04,1.233v5.494h27.265v-5.5l-8.292-1.238C149.465,295.958,148.875,284.478,148.241,273.1Z"/>
        <polygon class="b" points="209.019 306.52 179.939 306.52 179.939 275.132 198.827 275.132 200.439 280.772 205.129 280.772 205.129 261.994 200.438 261.994 198.826 267.687 179.939 267.687 179.939 239.468 206.408 239.468 209.308 248.921 214.944 248.921 213.632 231.969 160.677 231.969 160.677 237.464 168.841 238.7 168.841 307.235 160.677 308.47 160.677 313.965 215.98 313.965 217.863 297.013 212.886 297.013 209.019 306.52"/>
        <path class="b" d="M299.552,276.5H266.809v6.8h12.907a3.97,3.97,0,0,1,1.978.416c.393.228.584.719.584,1.5v10.9a12.472,12.472,0,0,1-.875,4.7c-1.912,4.606-8.443,6.942-19.411,6.942-10,0-18.052-3.767-23.939-11.2-5.488-6.966-8.271-15.536-8.271-25.472a33.034,33.034,0,0,1,8.784-23.134,29.48,29.48,0,0,1,22.566-9.774c6.969,0,12.74,1.279,17.155,3.8,3.9,2.222,5.871,4.912,5.871,8v.5h4.5l1.309-14.053-.3-.156c-6.951-3.674-16.463-5.536-28.27-5.536a45.169,45.169,0,0,0-21.4,5.215,41.719,41.719,0,0,0-8.779,6.279,39.431,39.431,0,0,0-6.882,8.514,42.28,42.28,0,0,0-4.485,10.6,50.908,50.908,0,0,0-1.6,13.426,40.257,40.257,0,0,0,3.072,15.2,39.119,39.119,0,0,0,8.732,13.165,41.063,41.063,0,0,0,13.673,8.836,45.2,45.2,0,0,0,17,3.233,55.685,55.685,0,0,0,16.726-2.443l6.88-2.257a26.528,26.528,0,0,1,8.433-1.585h.5v-23.7a1.589,1.589,0,0,1,.594-1.48,4.288,4.288,0,0,1,2.182-.437h3.508Z"/>
        <path class="b" d="M343.845,228.322l-9.629,4.042,2.371,5.589-28.013,69.258-8.631,1.256v5.5h24.042v-5.49l-7.375-1.2,8.072-20h31.553l8.124,20-7.214,1.2v5.489H384.84v-5.5l-8.793-1.256Zm9.626,51.45H327.6l12.908-32.626Z"/>
        <path class="b" d="M479,273.1c-.639-11.459-1.245-23.03-1.8-34.4l8.036-1.233v-5.494H467.6l-28.737,62.2-28.524-62.2H391.152v5.49l7.548,1.232-3.819,68.544-7.65,1.239v5.491h23.29v-5.489l-7.451-1.233,2.166-59.273,31.427,66.671,30.84-65.866,2.317,58.463-8.039,1.233v5.494h27.265v-5.5l-8.291-1.238C480.225,295.958,479.635,284.478,479,273.1Z"/>
        <polygon class="b" points="546.005 231.969 546.005 237.464 554.169 238.7 554.169 307.235 546.005 308.47 546.005 313.965 577.459 313.965 577.459 308.448 565.267 307.212 565.267 276.421 585.175 276.421 586.786 282.115 590.994 282.115 590.994 263.229 586.786 263.229 585.175 268.922 565.267 268.922 565.267 239.468 594.422 239.468 597.322 248.921 602.958 248.921 601.646 231.969 546.005 231.969"/>
        <polygon class="b" points="658.89 306.52 619.126 306.52 667.899 239.345 667.899 231.969 611.199 231.969 606.821 249.995 612.134 249.995 618.74 239.737 654.491 239.737 605.818 306.456 605.722 306.588 605.722 313.965 667.218 313.965 671.07 294.757 665.55 294.757 658.89 306.52"/>
        <path class="b" d="M740.6,293.918v.5c0,4.533-1.74,7.656-5.319,9.548a22.7,22.7,0,0,1-7.146,2.124,68.984,68.984,0,0,1-10.131.665,33.106,33.106,0,0,1-10.107-1.427,29.5,29.5,0,0,1-14.318-9.772c-5.557-6.93-8.376-15.5-8.376-25.469,0-9.382,3.043-17.306,9.043-23.552,6.033-6.208,13.773-9.356,23.006-9.356,7.141,0,12.818,1.259,16.872,3.739,3.78,2.325,5.616,5.312,5.616,9.135v.5h4.5l1.3-15.119-.281-.158a35.707,35.707,0,0,0-6.76-2.781,69.724,69.724,0,0,0-20.125-2.761c-12.068,0-22.446,3.893-30.844,11.569-9.089,8.225-13.7,19.012-13.7,32.061,0,11.8,3.9,21.565,11.592,29.04,8.043,7.828,18.949,11.8,32.414,11.8,12.173,0,21.527-1.848,27.8-5.493l.264-.154-.794-14.636Z"/>
        <path class="b" d="M820.053,241.271a37.362,37.362,0,0,0-13.01-8.468,49.29,49.29,0,0,0-18.178-3.069,38.792,38.792,0,0,0-19.693,5.331A39.588,39.588,0,0,0,754.4,250.132a45.482,45.482,0,0,0-4.21,10.7,54.176,54.176,0,0,0-1.52,13.473,43.716,43.716,0,0,0,2.743,15.1,36.791,36.791,0,0,0,8.06,12.986,37.711,37.711,0,0,0,13.061,8.655,44.456,44.456,0,0,0,16.839,3.153,42.275,42.275,0,0,0,16.469-3.1,38.64,38.64,0,0,0,12.922-8.869c7.969-8.294,12.01-19.145,12.01-32.251C830.777,258.191,827.168,248.532,820.053,241.271Zm-.482,33.65c0,9.387-2.72,17.1-8.085,22.918-5.46,5.916-12.656,8.916-21.385,8.916a27.218,27.218,0,0,1-16.674-5.271,27.889,27.889,0,0,1-5.83-5.91,35.9,35.9,0,0,1-4.185-7.5,43.613,43.613,0,0,1-2.522-8.629,56.987,56.987,0,0,1-.851-10.329,35.5,35.5,0,0,1,2.094-11.7,32.385,32.385,0,0,1,5.951-10.476,26.461,26.461,0,0,1,21-9.76c10.231,0,18.115,3.956,23.435,11.759C817.2,255.8,819.571,264.546,819.571,274.921Z"/>
      </g>
    </g>
    <g class="c">
      <path class="b" d="M439.864,104.506c-11.817,0-17.617,4.942-17.617,7.949,0,11.172,7.841,31.8,13.75,54.356a42.877,42.877,0,0,1,1.289,9.561c0,5.478-1.182,10.635-2.471,15.791l-2.578-.322c-.215-12.676-8.809-34.268-15.684-56.72a51.165,51.165,0,0,1-2.041-12.353,38.323,38.323,0,0,1,2.793-14.18c2.256-6.015,5.371-11.064,9.668-13.965a87.164,87.164,0,0,1-1.611-13.965c0-4.4,3.115-10.312,6.015-12.89s6.231-4.4,9.991-4.4A20.63,20.63,0,0,1,454.9,68.09a66.59,66.59,0,0,1,16.435,20.947,18.26,18.26,0,0,1,1.4,6.875c0,3.545-1.934,8.164-3.653,11.387C459.307,105.8,449.639,104.506,439.864,104.506ZM461.348,92.26c-6.123-8.164-12.676-16.113-22.881-16.113a20.108,20.108,0,0,0-6.553,1.181l.323,5.586a54.432,54.432,0,0,1-2.686,10.313,48.146,48.146,0,0,1,14.61-1.934,87.8,87.8,0,0,1,16.757,2.149Z"/>
    </g>
  </g>
</svg>
