<svg xmlns="http://www.w3.org/2000/svg" viewBox="0 0 84.582 80"><defs><style>.a{fill:#1a3745;}</style></defs><title>logo</title><path class="a" d="M84.483,39.631,77.108,26.822s7.259-12.615,7.337-12.732a.913.913,0,0,0,0-.892C84.367,13.081,77.069.272,77.069.272A.549.549,0,0,0,76.526,0H31a.446.446,0,0,0-.427.233L23,13.2H8.054a.427.427,0,0,0-.388.232l-7.608,13a.579.579,0,0,0,0,.5S22.649,66.414,22.727,66.531a.474.474,0,0,0,.427.233H38.1l7.492,13a.486.486,0,0,0,.426.233H61.155a.488.488,0,0,0,.427-.233l22.863-39.2A1,1,0,0,0,84.483,39.631Zm-68.821-13.9L8.986,14.09H22.455Zm60.9.117L69.849,14.09h13.47ZM38.991,14.09H52.732L38.215,39.515H24.124ZM52.926,39.515H39.3l6.754-11.762Zm-14.44.97H53.508L60.534,52.44H31.189L24.124,40.485ZM60.922,78.913H46.909l7.181-12.46a.491.491,0,0,0-.5-.737H24.047l7.142-12.3H61.465a.338.338,0,0,0,.311-.233c.039-.078,7.491-12.693,7.491-12.693l13.974.039Zm8.151-39.4L54.052,13.353a.448.448,0,0,0-.428-.233H38.874L31.849.893H76.332L83.28,13.12H68.957a.487.487,0,0,0-.427.233.572.572,0,0,0,0,.5l14.75,25.7Z"/></svg>