<svg xmlns="http://www.w3.org/2000/svg" viewBox="0 0 209.315 226.772"><defs><style>.cls-1{fill:#193644;}</style></defs><path class="cls-1" d="M110.266,19.053V0H19.053V19.053H0V226.772H54.9V183.09H74.418v43.682h54.9V19.053ZM38.6,206.654H32.447V183.09H38.6Zm0-38.046H32.447V152.7H38.6Zm0-30.39H32.447V122.31H38.6Zm0-30.39H32.447V91.92H38.6Zm0-30.391H32.447V61.53H38.6Zm9.713-22.056H42.16V49.232h6.149Zm9.712,113.227H51.872V152.7h6.149Zm0-30.39H51.872V122.31h6.149Zm0-30.39H51.872V91.92h6.149Zm0-30.391H51.872V61.53h6.149Zm9.713-22.056H61.585V49.232h6.149Zm9.713,113.227H71.3V152.7h6.149Zm0-30.39H71.3V122.31h6.149Zm0-30.39H71.3V91.92h6.149Zm0-30.391H71.3V61.53h6.149Zm9.712-22.056H81.01V49.232h6.149Zm9.713,151.273H90.723V183.09h6.149Zm0-38.046H90.723V152.7h6.149Zm0-30.39H90.723V122.31h6.149Zm0-30.39H90.723V91.92h6.149Zm0-30.391H90.723V61.53h6.149Z"/><path class="cls-1" d="M141.47,59.719V80.166h9.294v9.758H141.47v6.518h9.294v11.606H141.47V226.772h67.845V59.719Zm31.318,146.935h-6.149v-6.149h6.149Zm0-19.815h-6.149V180.69h6.149Zm0-19.814h-6.149v-6.149h6.149Zm0-19.815h-6.149v-6.149h6.149Zm0-19.815h-6.149v-6.149h6.149Zm0-19.815h-6.149v-6.149h6.149Zm0-19.814h-6.149V81.617h6.149ZM192.6,206.654h-6.149v-6.149H192.6Zm0-19.909h-6.149V180.6H192.6Zm0-19.815h-6.149v-6.149H192.6Zm0-19.814h-6.149v-6.149H192.6Zm0-19.815h-6.149v-6.149H192.6Zm0-19.815h-6.149v-6.149H192.6Zm0-19.815h-6.149V81.522H192.6Z"/></svg>
