<svg xmlns="http://www.w3.org/2000/svg" viewBox="0 0 227.257 226.772"><defs><style>.cls-1{fill:#193644;}</style></defs><path class="cls-1" d="M181.812,109.672H117.344V71.044A138.569,138.569,0,0,0,169.205,59.49,115.907,115.907,0,0,1,181.812,109.672Z"/><path class="cls-1" d="M117.344,5.894V63.609A130.055,130.055,0,0,0,165.58,52.94a128.1,128.1,0,0,0-18.437-23.794A141.443,141.443,0,0,0,117.344,5.894Z"/><path class="cls-1" d="M109.913,109.672V71.044A138.568,138.568,0,0,1,58.053,59.49a115.9,115.9,0,0,0-12.607,50.184h64.467Z"/><path class="cls-1" d="M80.114,29.146A127.856,127.856,0,0,0,61.666,52.957a131.189,131.189,0,0,0,48.247,10.65V5.894A141.443,141.443,0,0,0,80.114,29.146Z"/><path class="cls-1" d="M189.249,117.1a124.267,124.267,0,0,1-11.539,49.585c-.583,1.25-1.2,2.488-1.824,3.721,3.454,1.73,6.593,3.477,9.4,5.167a136.038,136.038,0,0,1,15.485,10.835,113.2,113.2,0,0,0,26.486-69.305H189.249Z"/><path class="cls-1" d="M38.009,109.672A124.348,124.348,0,0,1,49.548,60.087q.877-1.875,1.824-3.721c-3.455-1.73-6.594-3.478-9.4-5.168A135.865,135.865,0,0,1,26.487,40.364,113.214,113.214,0,0,0,0,109.672Z"/><path class="cls-1" d="M109.913,117.1H45.446a115.889,115.889,0,0,0,12.607,50.181,138.583,138.583,0,0,1,51.86-11.553Z"/><path class="cls-1" d="M51.372,170.409c-.628-1.233-1.242-2.471-1.824-3.721A124.262,124.262,0,0,1,38.009,117.1H0a113.2,113.2,0,0,0,26.487,69.3,135.858,135.858,0,0,1,15.485-10.835C44.778,173.886,47.917,172.136,51.372,170.409Z"/><path class="cls-1" d="M75,203.023a134.592,134.592,0,0,1-20.036-26.06,131.807,131.807,0,0,0-23.49,15.013,113.361,113.361,0,0,0,73.754,34.8A148.245,148.245,0,0,1,75,203.023Z"/><path class="cls-1" d="M46.054,44.983c2.653,1.588,5.619,3.235,8.885,4.86A134.668,134.668,0,0,1,75,23.751,148.341,148.341,0,0,1,105.223,0a113.345,113.345,0,0,0-73.765,34.81A128.854,128.854,0,0,0,46.054,44.983Z"/><path class="cls-1" d="M181.2,181.792c-2.654-1.588-5.619-3.236-8.886-4.861a134.628,134.628,0,0,1-20.056,26.092,148.326,148.326,0,0,1-30.228,23.749,113.383,113.383,0,0,0,73.768-34.81A129.173,129.173,0,0,0,181.2,181.792Z"/><path class="cls-1" d="M152.262,23.751A134.567,134.567,0,0,1,172.3,49.812,131.731,131.731,0,0,0,195.785,34.8,113.359,113.359,0,0,0,122.034,0,148.46,148.46,0,0,1,152.262,23.751Z"/><path class="cls-1" d="M117.344,117.1v38.628a138.57,138.57,0,0,1,51.861,11.553A115.9,115.9,0,0,0,181.812,117.1Z"/><path class="cls-1" d="M147.143,197.629a127.8,127.8,0,0,0,18.448-23.811,131.164,131.164,0,0,0-48.247-10.65V220.88A141.4,141.4,0,0,0,147.143,197.629Z"/><path class="cls-1" d="M185.283,51.2c-2.807,1.69-5.946,3.438-9.4,5.168.628,1.232,1.241,2.471,1.824,3.721a124.258,124.258,0,0,1,11.539,49.585h38.011a113.2,113.2,0,0,0-26.486-69.305A136.243,136.243,0,0,1,185.283,51.2Z"/><path class="cls-1" d="M109.913,220.88V163.165a130.044,130.044,0,0,0-48.235,10.67,128.08,128.08,0,0,0,18.436,23.794A141.4,141.4,0,0,0,109.913,220.88Z"/></svg>
