<svg xmlns="http://www.w3.org/2000/svg" viewBox="0 0 193.025 226.772"><defs><style>.cls-1{fill:#193644;}</style></defs><path class="cls-1" d="M192.9,79.1c-.567-9.637-5.385-89.567-104.873-77.946C51.458,6.537,26.8,32.614,23.4,69.178c-.284,2.834-.567,6.519-.567,10.2a16.241,16.241,0,0,1-.85,6.235c-.567,1.418-20.692,41.1-20.692,41.1a6.218,6.218,0,0,0-1.134,5.1c.567,2.551,2.268,4.818,5.669,6.519a28.7,28.7,0,0,0,4.252,1.984c2.834,1.134,5.385,2.267,7.086,4.818,2.268,3.118,2.268,6.519,2.268,10.488,0,1.133-.567,13.605-.567,13.605-.567,7.369-.851,15.022,2.834,20.408s10.487,5.952,17.007,5.952H57.126c7.653,0,9.637,4.819,9.921,9.354v19.841a1.938,1.938,0,0,0,1.984,1.984h87.584a1.938,1.938,0,0,0,1.984-1.984V167.816a5.906,5.906,0,0,1,1.984-4.252C195.446,127.567,193.179,88.735,192.9,79.1ZM147,87.59a1.937,1.937,0,0,1-1.984,1.984h-8.22l-1.417,3.118,5.952,6.8a2.054,2.054,0,0,1,0,2.834l-11.337,10.2a2.055,2.055,0,0,1-2.835,0l-4.818-5.669-4.535,1.984v8.22a1.938,1.938,0,0,1-1.984,1.984H99.946a1.937,1.937,0,0,1-1.984-1.984v-8.22l-3.685-1.7-5.669,6.235a2.054,2.054,0,0,1-2.834,0l-11.338-10.2a2.055,2.055,0,0,1,0-2.835l6.519-7.369-1.417-3.685h-8.22a1.937,1.937,0,0,1-1.984-1.984V72.284A1.938,1.938,0,0,1,71.318,70.3h8.5l1.7-3.968L75.853,60.1a2.179,2.179,0,0,1,.284-2.834l11.337-10.2a2.055,2.055,0,0,1,2.835,0l5.1,5.669,3.118-1.134v-8.22a1.937,1.937,0,0,1,1.984-1.984h15.022a1.937,1.937,0,0,1,1.984,1.984v8.22L121.2,53.01l5.1-5.669a2.057,2.057,0,0,1,2.834,0l11.338,10.2c.85.851,1.134,1.984.284,2.835L135.093,66.9l1.417,3.685h8.5c1.984,0,1.984,2.267,1.984,1.7Z"/><g id="DRdhTJLlWneroCIMbTad7"><path class="cls-1" d="M118.939,80.5A10.649,10.649,0,0,1,108.451,90.99,10.488,10.488,0,1,1,118.939,80.5Z"/></g></svg>
